HIERARCHY
ROOT SpineBase
{
  OFFSET 0.000000 0.000000 0.000000
  CHANNELS 6 Xposition Yposition Zposition Zrotation Xrotation Yrotation
  JOINT SpineMid
  {
    OFFSET -0.000000 30.736676 0.000000
    CHANNELS 3 Zrotation Xrotation Yrotation
    JOINT SpineShoulder
    {
      OFFSET -0.054776 22.717020 -0.683241
      CHANNELS 3 Zrotation Xrotation Yrotation
      JOINT Neck
      {
        OFFSET -0.051541 7.470497 -0.547492
        CHANNELS 3 Zrotation Xrotation Yrotation
        JOINT Head
        {
          OFFSET 1.489849 15.782247 0.094999
          CHANNELS 3 Zrotation Xrotation Yrotation
          End Site
          {
            OFFSET 0 0 0
          }
        }
      }
      JOINT ShoulderLeft
      {
        OFFSET -18.747461 -3.506597 0.479624
        CHANNELS 3 Zrotation Xrotation Yrotation
        JOINT ElbowLeft
        {
          OFFSET -2.832125 -26.175714 -1.353518
          CHANNELS 3 Zrotation Xrotation Yrotation
          JOINT WristLeft
          {
            OFFSET 3.874133 -21.271236 -7.410431
            CHANNELS 3 Zrotation Xrotation Yrotation
            JOINT HandLeft
            {
              OFFSET 2.873267 -6.900930 -2.261977
              CHANNELS 3 Zrotation Xrotation Yrotation
              JOINT HandTipLeft
              {
                OFFSET 1.923844 -7.127842 -0.613725
                CHANNELS 3 Zrotation Xrotation Yrotation
                End Site
                {
                  OFFSET 0 0 0
                }
              }
              JOINT ThumbLeft
              {
                OFFSET 3.354920 1.237708 -2.455278
                CHANNELS 3 Zrotation Xrotation Yrotation
                End Site
                {
                  OFFSET 0 0 0
                }
              }
            }
          }
        }
      }
      JOINT ShoulderRight
      {
        OFFSET 17.108237 -3.329894 -0.436590
        CHANNELS 3 Zrotation Xrotation Yrotation
        JOINT ElbowRight
        {
          OFFSET 5.676441 -24.310942 4.647925
          CHANNELS 3 Zrotation Xrotation Yrotation
          JOINT WristRight
          {
            OFFSET -2.998202 -18.354254 -9.358775
            CHANNELS 3 Zrotation Xrotation Yrotation
            JOINT HandRight
            {
              OFFSET -3.047447 -7.058456 -4.003605
              CHANNELS 3 Zrotation Xrotation Yrotation
              JOINT HandTipRight
              {
                OFFSET -1.707028 -7.362554 -1.747799
                CHANNELS 3 Zrotation Xrotation Yrotation
                End Site
                {
                  OFFSET 0 0 0
                }
              }
              JOINT ThumbRight
              {
                OFFSET -3.384706 2.584373 -2.236738
                CHANNELS 3 Zrotation Xrotation Yrotation
                End Site
                {
                  OFFSET 0 0 0
                }
              }
            }
          }
        }
      }
    }
  }
  JOINT HipLeft
  {
    OFFSET -8.254259 0.001430 -3.451440
    CHANNELS 3 Zrotation Xrotation Yrotation
    JOINT KneeLeft
    {
      OFFSET -0.729231 -36.172515 3.152669
      CHANNELS 3 Zrotation Xrotation Yrotation
      JOINT AnkleLeft
      {
        OFFSET 3.484241 -33.505798 9.450096
        CHANNELS 3 Zrotation Xrotation Yrotation
        JOINT FootLeft
        {
          OFFSET -0.290839 -3.508054 -11.813197
          CHANNELS 3 Zrotation Xrotation Yrotation
          End Site
          {
            OFFSET 0 0 0
          }
        }
      }
    }
  }
  JOINT HipRight
  {
    OFFSET 7.468477 0.527687 -4.101106
    CHANNELS 3 Zrotation Xrotation Yrotation
    JOINT KneeRight
    {
      OFFSET 1.942509 -35.097786 2.931315
      CHANNELS 3 Zrotation Xrotation Yrotation
      JOINT AnkleRight
      {
        OFFSET 0.656612 -34.686619 8.587862
        CHANNELS 3 Zrotation Xrotation Yrotation
        JOINT FootRight
        {
          OFFSET -0.096393 -7.233284 -5.540811
          CHANNELS 3 Zrotation Xrotation Yrotation
          End Site
          {
            OFFSET 0 0 0
          }
        }
      }
    }
  }
}
MOTION
Frames: 13
Frame Time: 0.033333
35.069290 79.599752 380.977099 -6.175180 0.210136 -3.928067 0.223355 -0.202854 3.748794 0.053525 -0.032340 -0.256176 -0.357193 0.794487 0.444143 0.000000 0.000000 0.000000 -12.625432 1.941330 1.490920 55.264245 18.010662 -13.520258 -6.562494 -27.033335 2.839828 26.653939 29.059762 -3.001917 0.000000 0.000000 0.000000 0.000000 0.000000 0.000000 -5.109155 15.786793 3.749803 -15.239340 13.042137 6.731747 -21.449795 -23.634208 -1.226613 5.654689 28.669397 -8.808233 0.000000 0.000000 0.000000 0.000000 0.000000 0.000000 -6.664051 10.135104 3.815198 -4.793253 1.585829 -2.563919 20.033304 -32.221324 11.083587 0.000000 0.000000 0.000000 9.798698 1.597856 4.242875 1.490534 -9.916913 1.198922 -3.083966 5.055263 -2.505155 0.000000 0.000000 0.000000
34.152147 79.368148 380.098396 -5.681804 0.112629 -4.211250 0.114085 -0.156468 4.040851 0.059709 -0.077796 -0.241558 -0.007471 1.090240 0.401118 0.000000 0.000000 0.000000 -12.850129 2.246049 1.486619 57.757472 16.937149 -14.464084 -10.576034 -22.426364 3.679953 31.490662 21.389706 -2.411173 0.000000 0.000000 0.000000 0.000000 0.000000 0.000000 -3.786576 14.546868 3.354923 -17.855720 14.978918 7.548019 -18.007234 -20.097116 -1.700375 0.751598 24.749953 -6.666398 0.000000 0.000000 0.000000 0.000000 0.000000 0.000000 -7.753842 10.578633 4.152628 -6.196802 2.748239 -2.857215 23.062937 -35.960667 13.590323 0.000000 0.000000 0.000000 9.673013 1.677091 4.533228 1.834815 -10.801298 1.436344 -3.207362 5.911097 -3.108362 0.000000 0.000000 0.000000
33.105018 79.021686 379.082698 -5.210325 0.074317 -4.123932 0.009741 -0.081311 3.966868 0.065055 -0.092351 -0.225279 1.492841 0.673449 0.366344 0.000000 0.000000 0.000000 -13.591212 3.184515 1.529776 59.289043 15.217842 -14.110544 -12.903311 -20.132068 4.108322 30.280817 11.415542 0.324233 0.000000 0.000000 0.000000 0.000000 0.000000 0.000000 -3.908340 14.619376 3.371827 -17.879255 15.436075 7.352336 -17.609401 -19.398896 -1.867282 1.075853 24.681708 -6.577974 0.000000 0.000000 0.000000 0.000000 0.000000 0.000000 -8.880143 11.155918 4.131710 -7.366778 3.783764 -3.088696 26.074425 -39.292997 16.910889 0.000000 0.000000 0.000000 9.877306 1.341157 4.480771 1.842128 -11.407117 1.632224 -2.899479 6.522596 -4.047528 0.000000 0.000000 0.000000
31.966530 78.536545 378.024946 -4.418844 -0.149331 -3.783430 0.071887 -0.058549 3.643740 0.112675 -0.119162 -0.186267 1.436004 1.435918 0.257237 0.000000 0.000000 0.000000 -14.408160 3.844954 1.548543 61.327193 13.789158 -14.513912 -13.398264 -19.075465 4.628855 33.876545 9.178461 0.496654 0.000000 0.000000 0.000000 0.000000 0.000000 0.000000 -3.396609 14.250048 3.214501 -19.844528 15.823484 7.632926 -16.607751 -18.944458 -1.928809 -0.051500 23.961793 -6.242857 0.000000 0.000000 0.000000 0.000000 0.000000 0.000000 -10.127873 11.820891 3.876107 -8.667049 4.947925 -3.294165 27.920325 -37.793277 16.575086 0.000000 0.000000 0.000000 10.083307 0.958897 4.175138 1.428224 -11.879112 1.770798 -2.576753 1.582191 -4.871587 0.000000 0.000000 0.000000
30.802785 77.937524 376.878179 -3.429908 -0.327181 -3.520012 0.056805 -0.010348 3.407325 0.101809 -0.121242 -0.144495 2.234050 1.194028 0.182670 0.000000 0.000000 0.000000 -15.293997 4.252187 1.527754 62.937759 14.063943 -15.080547 -13.925835 -22.991193 4.494104 29.131305 14.996096 -0.399250 0.000000 0.000000 0.000000 0.000000 0.000000 0.000000 -2.430740 13.097777 2.878201 -21.784806 16.905797 7.980740 -16.767601 -18.761867 -1.820766 0.865233 24.795299 -6.462345 0.000000 0.000000 0.000000 0.000000 0.000000 0.000000 -11.566743 12.365232 3.693562 -9.771029 5.841745 -3.493151 29.731448 -36.998472 16.727974 0.000000 0.000000 0.000000 10.103255 0.580499 3.966403 1.028172 -12.522929 1.933228 -2.172865 2.896240 -5.862090 0.000000 0.000000 0.000000
29.506815 77.238371 375.687008 -2.330118 -0.551142 -3.050374 0.089132 -0.022345 2.969376 0.122538 -0.150429 -0.094922 2.893794 1.202158 0.085005 0.000000 0.000000 0.000000 -15.858131 4.628007 1.479753 64.622387 14.910230 -16.130277 -15.573721 -26.924651 4.415743 27.692169 18.683988 -1.127682 0.000000 0.000000 0.000000 0.000000 0.000000 0.000000 -2.663100 12.832554 2.722545 -23.920643 17.416530 8.727442 -15.303551 -18.046290 -2.124918 -1.731073 23.123562 -5.705142 0.000000 0.000000 0.000000 0.000000 0.000000 0.000000 -12.847297 12.948744 3.313253 -10.924597 6.474161 -3.755091 31.270901 -35.188073 15.226944 0.000000 0.000000 0.000000 9.890665 0.308873 3.548417 1.060460 -13.275568 2.227470 -2.099207 9.142111 -6.910315 0.000000 0.000000 0.000000
28.222185 76.468933 374.469757 -0.814266 -0.823232 -2.969845 0.164934 -0.019604 2.941034 0.111097 -0.136769 -0.026182 2.539798 1.020873 -0.008450 0.000000 0.000000 0.000000 -17.056154 5.322574 1.438037 66.806216 14.999550 -16.954756 -15.670248 -23.486222 5.416072 21.320950 14.963732 1.775588 0.000000 0.000000 0.000000 0.000000 0.000000 0.000000 -3.610786 12.811948 2.595489 -25.458481 17.910852 9.262545 -16.023147 -15.326689 -2.153151 -5.592938 18.999181 -5.127163 0.000000 0.000000 0.000000 0.000000 0.000000 0.000000 -14.840539 13.491619 3.356598 -11.156675 6.455930 -3.916370 31.691869 -32.435175 13.151275 0.000000 0.000000 0.000000 9.061533 0.270963 3.506941 1.379664 -14.026149 2.577475 -1.823267 18.643267 -8.262960 0.000000 0.000000 0.000000
26.599251 75.683799 373.070617 0.751030 -1.065473 -3.385125 0.164746 0.000222 3.415575 0.210465 -0.192891 0.048698 1.773689 1.470990 -0.167608 0.000000 0.000000 0.000000 -17.706360 5.901904 1.322301 67.248027 15.758608 -17.555570 -13.103852 -26.913073 5.854041 14.150500 19.748972 2.887965 0.000000 0.000000 0.000000 0.000000 0.000000 0.000000 -3.889935 12.526949 2.439983 -27.579691 19.052652 9.787238 -17.572611 -18.182631 -2.428893 -10.371637 25.464454 -2.325941 0.000000 0.000000 0.000000 0.000000 0.000000 0.000000 -16.545032 13.584535 3.844997 -11.283178 6.102315 -4.091269 30.979161 -23.933312 7.421652 0.000000 0.000000 0.000000 8.453643 0.053004 3.994728 1.667908 -14.370891 2.976903 -1.671329 29.340922 -9.709119 0.000000 0.000000 0.000000
24.919129 74.915512 371.624451 2.620220 -1.491401 -3.709121 0.254665 -0.052771 3.824216 -0.106419 -0.027541 0.110991 1.047015 2.045565 -0.340720 0.000000 0.000000 0.000000 -18.031983 6.713240 1.183359 68.226877 15.008421 -18.049402 -12.660309 -28.639230 6.483125 12.116018 25.908492 2.655765 0.000000 0.000000 0.000000 0.000000 0.000000 0.000000 -4.188553 12.278788 2.293503 -28.680356 20.025218 9.816134 -20.409810 -19.243683 -2.350390 -10.846729 28.965114 -1.241065 0.000000 0.000000 0.000000 0.000000 0.000000 0.000000 -18.733478 14.106239 4.352023 -10.693019 4.538483 -4.416886 30.322771 -18.475368 3.916633 0.000000 0.000000 0.000000 7.323300 -0.107287 4.379653 2.447496 -14.625656 3.483668 -1.872820 39.277637 -11.036409 0.000000 0.000000 0.000000
22.853903 74.338245 370.150202 4.441588 -2.023551 -4.872445 0.152366 -0.033363 5.083148 -0.070004 -0.039121 0.186085 -0.023825 3.318526 -0.587496 0.000000 0.000000 0.000000 -17.980282 7.169192 1.007674 68.379573 16.658270 -19.399865 -10.106520 -34.991145 7.519280 5.872179 32.240990 4.324843 0.000000 0.000000 0.000000 0.000000 0.000000 0.000000 -2.160022 10.526923 1.934494 -33.440333 23.069168 11.243723 -19.925313 -20.422545 -2.923047 -12.128412 31.600576 0.104238 0.000000 0.000000 0.000000 0.000000 0.000000 0.000000 -20.356495 14.294373 5.674153 -10.375421 2.481010 -4.862989 29.420026 -13.711371 0.670622 0.000000 0.000000 0.000000 6.606986 -0.119349 5.634973 2.905583 -14.531302 3.951109 -2.088949 46.923153 -12.375388 0.000000 0.000000 0.000000
20.608841 73.982776 368.752071 5.866179 -2.434040 -6.028096 0.350988 -0.249714 6.340872 -0.269364 0.038559 0.239518 0.727423 3.410391 -0.739259 0.000000 0.000000 0.000000 -18.303981 7.890827 0.951928 69.120446 15.305182 -19.766085 -8.247292 -34.331508 8.567892 -0.617666 32.536630 6.914626 0.000000 0.000000 0.000000 0.000000 0.000000 0.000000 -1.889585 10.473904 1.847106 -33.599726 24.739356 10.585433 -20.430662 -19.549331 -2.885559 -7.525871 33.590437 -1.191063 0.000000 0.000000 0.000000 0.000000 0.000000 0.000000 -20.995579 14.350610 6.911681 -10.467208 0.412160 -5.328389 28.411983 -9.916417 -1.870755 0.000000 0.000000 0.000000 6.708552 -0.271311 6.929228 2.815158 -14.129043 4.308897 -1.827157 52.052831 -14.052791 0.000000 0.000000 0.000000
18.241252 73.727655 367.403313 7.765795 -3.410625 -7.275594 0.195023 -0.266114 7.751766 -0.287111 -0.012001 0.313672 -0.390078 5.818879 -1.129512 0.000000 0.000000 0.000000 -17.767814 9.349012 0.800853 68.507720 13.911027 -19.800401 -6.377930 -35.435750 9.668210 -4.605686 35.498389 8.494428 0.000000 0.000000 0.000000 0.000000 0.000000 0.000000 -1.719885 11.125449 1.788798 -35.220702 26.579338 10.508788 -19.188400 -20.298306 -3.440862 -9.278109 35.224722 -0.000571 0.000000 0.000000 0.000000 0.000000 0.000000 0.000000 -21.533161 14.713803 8.396823 -11.189906 -1.631951 -5.864793 27.362754 -7.816102 -3.824420 0.000000 0.000000 0.000000 6.617697 0.075310 8.319783 2.219877 -13.485610 4.560604 -1.732323 54.722972 -15.400895 0.000000 0.000000 0.000000
15.879032 73.712804 366.167882 9.490385 -4.378436 -8.288694 0.155176 -0.297102 8.951979 -0.399855 0.040642 0.376160 0.237444 6.573838 -1.428154 0.000000 0.000000 0.000000 -17.471679 11.617799 0.611944 67.857716 11.449550 -18.594233 -5.096692 -33.942956 10.268775 -2.395915 32.198088 7.663875 0.000000 0.000000 0.000000 0.000000 0.000000 0.000000 -2.266466 12.248753 1.774340 -35.170123 27.748094 9.724296 -16.771737 -21.169321 -3.809429 -10.825883 34.729147 0.419132 0.000000 0.000000 0.000000 0.000000 0.000000 0.000000 -21.681547 15.107130 9.640077 -12.281973 -2.965755 -6.275723 26.176168 -8.198159 -3.868726 0.000000 0.000000 0.000000 6.947510 0.565327 9.488499 0.862435 -12.758732 4.632760 -2.787624 56.410749 -15.092879 0.000000 0.000000 0.000000
